<svg width="24" height="25" viewBox="0 0 24 25" fill="none" xmlns="http://www.w3.org/2000/svg">
<path d="M19.5 12.5V18.5C19.5 20.4339 17.9339 22 16 22H8C6.06614 22 4.5 20.4339 4.5 18.5V12.5C4.5 12.2261 4.72614 12 5 12H6.97C7.24386 12 7.47 12.2261 7.47 12.5V15.64C7.47 16.5646 7.98142 17.4122 8.79071 17.849C9.1561 18.0501 9.55871 18.15 9.97 18.15C10.4457 18.15 10.9217 18.0125 11.3352 17.7375L12.0063 17.2995L12.6111 17.705C12.6111 17.705 12.6112 17.705 12.6112 17.7051C13.3697 18.2148 14.3474 18.2809 15.1657 17.841C15.9858 17.4054 16.5 16.5674 16.5 15.63V12.5C16.5 12.2261 16.7261 12 17 12H19C19.2739 12 19.5 12.2261 19.5 12.5Z" fill="#EF63B2" stroke="#EF63B2"/>
<path d="M21 7.5V8.5C21 8.97826 20.884 9.34359 20.6745 9.5838C20.4757 9.8116 20.1288 10 19.5 10H4.5C3.83525 10 3.49427 9.80829 3.3069 9.58829C3.10646 9.35296 3 8.99047 3 8.5V7.5C3 7.00953 3.10646 6.64704 3.3069 6.41171C3.49427 6.19171 3.83525 6 4.5 6H19.5C20.1288 6 20.4757 6.1884 20.6745 6.4162C20.884 6.65641 21 7.02174 21 7.5Z" fill="#EF63B2" stroke="#EF63B2"/>
<path d="M11.64 5.49994H6.12003C5.78003 5.12994 5.79003 4.55994 6.15003 4.19994L7.57003 2.77994C7.94003 2.40994 8.55003 2.40994 8.92003 2.77994L11.64 5.49994Z" fill="#EF63B2"/>
<path d="M17.87 5.49994H12.35L15.07 2.77994C15.44 2.40994 16.05 2.40994 16.42 2.77994L17.84 4.19994C18.2 4.55994 18.21 5.12994 17.87 5.49994Z" fill="#EF63B2"/>
<path d="M13.97 11.5C14.52 11.5 14.97 11.95 14.97 12.5V15.63C14.97 16.43 14.08 16.91 13.42 16.46L12.52 15.86C12.19 15.64 11.76 15.64 11.42 15.86L10.48 16.48C9.82 16.92 8.94 16.44 8.94 15.65V12.5C8.94 11.95 9.39 11.5 9.94 11.5H13.97Z" fill="#EF63B2"/>
</svg>
