<svg width="26" height="25" viewBox="0 0 26 25" fill="none" xmlns="http://www.w3.org/2000/svg">
<rect x="0.651611" width="25" height="25" rx="7" fill="white"/>
<path d="M17.5267 13.7499V15.6249H19.4017V16.8749H17.526L17.5267 18.7499H16.2767L16.276 16.8749H14.4017V15.6249H16.2767V13.7499H17.5267ZM18.3032 7.97335C19.6537 9.32658 19.7588 11.4463 18.6202 12.9169C18.1054 12.6502 17.521 12.5 16.9016 12.5C14.8305 12.5 13.1516 14.1789 13.1516 16.25C13.1516 16.8806 13.3072 17.4748 13.5822 17.9963L13.1515 18.4281L7.85247 13.1206C6.53727 11.6481 6.58643 9.38688 7.99996 7.97335C9.41509 6.55822 11.6799 6.51054 13.1522 7.83033C14.6204 6.5125 16.8891 6.55625 18.3032 7.97335Z" fill="#FF4D50"/>
</svg>
